<svg width="47" height="47" viewBox="0 0 47 47" fill="none" xmlns="http://www.w3.org/2000/svg">
<g filter="url(#filter0_d_132_423)">
<path fill-rule="evenodd" clip-rule="evenodd" d="M23.385 0.598083C12.8742 0.598083 4.35352 9.11868 4.35352 19.6296C4.35352 30.1403 12.8742 38.661 23.385 38.661C33.8959 38.661 42.4165 30.1403 42.4165 19.6296C42.4165 9.11868 33.8959 0.598083 23.385 0.598083ZM23.385 34.8547C14.9898 34.8547 8.15981 28.0247 8.15981 19.6296C8.15981 11.2344 14.9898 4.40438 23.385 4.40438C31.7803 4.40438 38.6102 11.2344 38.6102 19.6296C38.6102 28.0247 31.7803 34.8547 23.385 34.8547ZM25.7681 12.017C25.7681 13.3968 24.7634 14.3959 23.4043 14.3959C21.9902 14.3959 21.0102 13.3968 21.0102 11.9906C21.0102 10.639 22.0168 9.63803 23.4043 9.63803C24.7634 9.63803 25.7681 10.639 25.7681 12.017ZM21.486 17.7264H25.2923V29.1453H21.486V17.7264Z" fill="black" fill-opacity="0.49"/>
</g>
<defs>
<filter id="filter0_d_132_423" x="0.353516" y="0.598083" width="46.063" height="46.0629" filterUnits="userSpaceOnUse" color-interpolation-filters="sRGB">
<feFlood flood-opacity="0" result="BackgroundImageFix"/>
<feColorMatrix in="SourceAlpha" type="matrix" values="0 0 0 0 0 0 0 0 0 0 0 0 0 0 0 0 0 0 127 0" result="hardAlpha"/>
<feOffset dy="4"/>
<feGaussianBlur stdDeviation="2"/>
<feComposite in2="hardAlpha" operator="out"/>
<feColorMatrix type="matrix" values="0 0 0 0 0 0 0 0 0 0 0 0 0 0 0 0 0 0 0.25 0"/>
<feBlend mode="normal" in2="BackgroundImageFix" result="effect1_dropShadow_132_423"/>
<feBlend mode="normal" in="SourceGraphic" in2="effect1_dropShadow_132_423" result="shape"/>
</filter>
</defs>
</svg>
